#N canvas 316 86 876 593 10;
#X obj -84 18 receive fromGUI;
#X obj -84 68 send toNetwork;
#X obj 60 69 send toGUI;
#X obj 60 19 receive fromNetwork;
#X obj 150 46 list trim;
#X msg 393 238 float 0;
#X obj 568 238 + 1;
#X obj 495 235 float;
#X floatatom 496 263 5 0 0 0 - - -;
#X obj 457 191 metro 1000;
#X msg 489 393 list /toGUI/connection 0;
#X msg 299 317 list /toGUI/connection 1;
#X obj 151 80 select /toGUI/heartbeat;
#X obj 396 181 bng 15 250 50 0 empty empty empty 17 7 0 10 -262144
-1 -1;
#X obj 456 134 loadbang;
#X obj 489 347 select 1;
#X msg 592 160 float 5;
#X obj 491 307 >=;
#X obj 474 440 print CONNECTION=;
#X connect 0 0 1 0;
#X connect 3 0 2 0;
#X connect 3 0 4 0;
#X connect 4 0 12 0;
#X connect 5 0 11 0;
#X connect 5 0 7 1;
#X connect 6 0 7 1;
#X connect 7 0 6 0;
#X connect 7 0 8 0;
#X connect 8 0 17 0;
#X connect 9 0 7 0;
#X connect 10 0 2 0;
#X connect 10 0 18 0;
#X connect 11 0 2 0;
#X connect 11 0 18 0;
#X connect 12 0 5 0;
#X connect 13 0 5 0;
#X connect 14 0 9 0;
#X connect 14 0 16 0;
#X connect 15 0 10 0;
#X connect 16 0 8 0;
#X connect 16 0 17 1;
#X connect 17 0 15 0;
