#N canvas 162 69 1155 609 10;
#X declare -lib mrpeach;
#X obj 38 12 unpackOSC;
#X obj 14 -71 import mrpeach;
#X obj 30 54 print IN;
#X obj 38 -23 udpreceive 54321;
#X msg 166 2 \$1;
#X obj 244 686 print OSC;
#X obj 352 868 packOSC;
#X obj 372 921 udpsend 9951;
#X msg 493 892 connect localhost 9951;
#X obj 118 218 routeOSC /0 /1 /2 /3;
#X msg 192 262 0;
#X msg 226 262 1;
#X msg 263 262 2;
#X msg 299 262 3;
#X msg 25 369 record;
#X msg 84 370 overdub;
#X msg 281 373 undo;
#X obj 143 427 symbol;
#X obj 281 305 float;
#X obj 131 535 pack s f;
#X text 273 -1 Example message;
#X msg 44 622 send /sl/\$2/hit \$1;
#X obj 126 473 spigot;
#X obj 125 27 send buttonState;
#X obj 164 450 receive buttonState;
#X obj 281 331 send channel;
#X obj 184 508 receive channel;
#X msg 274 16 /sl/0/record 1;
#X obj 919 507 loadbang;
#X obj 374 428 symbol;
#X obj 559 472 select 0 1;
#X obj 607 433 receive buttonState;
#X msg 375 618 send /sl/\$2/\$3 \$1;
#X obj 387 587 pack s f s;
#X msg 596 518 symbol down;
#X msg 524 519 symbol up;
#X obj 415 538 receive channel;
#X obj 1028 550 metro 100;
#X obj 213 61 routeOSC /fromGUI /fromAPP;
#X obj 125 176 routeOSC /sl;
#X obj 618 14 routeOSC /sl;
#X obj 1013 507 bng 15 250 50 0 empty empty empty 17 7 0 10 -262144
-1 -1;
#X obj 895 596 send timerTickConn;
#X obj 1043 595 send timerTickUpdate;
#X obj 493 866 receive timerTickConn;
#X obj 676 694 receive timerTickUpdate;
#X text 935 478 ####### Timers ######;
#X obj 1277 354 packOSC;
#X obj 1418 352 receive timerTickConn;
#X text 639 -21 ###### GUI Updates ######;
#X msg 673 296 send /toGUI/sl/\$1/\$2 \$3;
#X msg 1418 378 connect 224.0.0.1 54322;
#X obj 1297 408 udpsend 224.0.0.1;
#X msg 680 741 send /sl/0/get loop_pos osc.udp://localhost:54321 /fromAPP/sl
;
#X msg 657 787 send /sl/0/get loop_len osc.udp://localhost:54321 /fromAPP/sl
;
#X obj 675 43 unpack f s f;
#X obj 694 256 pack f s f;
#X obj 1001 114 float;
#X floatatom 941 177 5 0 0 0 - - -;
#X obj 1061 114 float;
#X floatatom 1008 177 5 0 0 0 - - -;
#X obj 822 114 select loop_pos loop_len;
#X obj 980 209 /;
#X floatatom 1033 222 5 0 0 0 - - -;
#X text 883 63 calculate relative pos (pos / len);
#X obj 947 275 float;
#X obj 853 253 float;
#X text 852 235 len (absolute);
#X text 944 250 pos (relative);
#X msg 145 370 multiply;
#X obj 910 550 metro 3000;
#X obj 666 343 send toMulticast;
#X obj 1274 314 receive toMulticast;
#X text 1275 275 ###### SEND MULTICAST ######;
#X msg 746 594 send /toGUI/heartbeat;
#X msg 744 625 send toMulticast;
#X obj 20 332 routeOSC /record /overdub /mult /undo;
#X connect 0 0 2 0;
#X connect 0 0 4 0;
#X connect 0 0 38 0;
#X connect 3 0 0 0;
#X connect 4 0 23 0;
#X connect 6 0 7 0;
#X connect 8 0 7 0;
#X connect 9 0 10 0;
#X connect 9 0 76 0;
#X connect 9 1 11 0;
#X connect 9 1 76 0;
#X connect 9 2 12 0;
#X connect 9 2 76 0;
#X connect 9 3 13 0;
#X connect 9 3 76 0;
#X connect 10 0 18 0;
#X connect 11 0 18 0;
#X connect 12 0 18 0;
#X connect 13 0 18 0;
#X connect 14 0 17 0;
#X connect 15 0 17 0;
#X connect 16 0 29 0;
#X connect 17 0 22 0;
#X connect 18 0 25 0;
#X connect 19 0 21 0;
#X connect 21 0 5 0;
#X connect 21 0 6 0;
#X connect 22 0 19 0;
#X connect 24 0 22 1;
#X connect 26 0 19 1;
#X connect 27 0 4 0;
#X connect 27 0 38 0;
#X connect 28 0 37 0;
#X connect 28 0 70 0;
#X connect 29 0 33 0;
#X connect 30 0 35 0;
#X connect 30 1 34 0;
#X connect 31 0 30 0;
#X connect 32 0 5 0;
#X connect 32 0 6 0;
#X connect 33 0 32 0;
#X connect 34 0 33 2;
#X connect 35 0 33 2;
#X connect 36 0 33 1;
#X connect 37 0 43 0;
#X connect 38 0 39 0;
#X connect 38 1 40 0;
#X connect 39 0 9 0;
#X connect 40 0 55 0;
#X connect 41 0 37 0;
#X connect 41 0 70 0;
#X connect 44 0 8 0;
#X connect 45 0 53 0;
#X connect 45 0 54 0;
#X connect 47 0 52 0;
#X connect 48 0 51 0;
#X connect 50 0 71 0;
#X connect 51 0 52 0;
#X connect 53 0 6 0;
#X connect 54 0 6 0;
#X connect 55 0 56 0;
#X connect 55 1 61 0;
#X connect 55 1 56 1;
#X connect 55 2 57 1;
#X connect 55 2 59 1;
#X connect 56 0 50 0;
#X connect 57 0 58 0;
#X connect 58 0 62 0;
#X connect 59 0 60 0;
#X connect 60 0 62 1;
#X connect 60 0 66 1;
#X connect 61 0 57 0;
#X connect 61 0 65 0;
#X connect 61 1 59 0;
#X connect 61 1 66 0;
#X connect 62 0 63 0;
#X connect 63 0 65 1;
#X connect 65 0 56 2;
#X connect 66 0 56 2;
#X connect 69 0 17 0;
#X connect 70 0 42 0;
#X connect 70 0 74 0;
#X connect 72 0 47 0;
#X connect 74 0 75 0;
#X connect 76 0 14 0;
#X connect 76 1 15 0;
#X connect 76 2 69 0;
#X connect 76 3 16 0;
