#N canvas 314 86 876 593 10;
#X obj -84 18 receive fromGUI;
#X obj -84 68 send toNetwork;
#X obj 60 69 send toGUI;
#X obj 60 19 receive fromNetwork;
#X obj 150 46 list trim;
#X msg 393 238 float 0;
#X obj 568 238 + 1;
#X obj 495 235 float;
#X floatatom 496 263 5 0 0 0 - - -;
#X obj 457 191 metro 1000;
#X obj 396 181 bng 15 250 50 0 empty empty empty 17 7 0 10 -262144
-1 -1;
#X obj 456 134 loadbang;
#X obj 489 347 select 1;
#X msg 592 160 float 5;
#X obj 491 307 >=;
#X obj 474 440 print CONNECTION=;
#X msg 489 393 list /toGUI/connection highlight 0;
#X msg 293 330 list /toGUI/connection highlight 1;
#X obj 151 80 route /toGUI/heartbeat;
#X msg 267 135 bang;
#X msg 457 36 list /toGUI/heartbeat 1;
#X connect 0 0 1 0;
#X connect 3 0 2 0;
#X connect 3 0 4 0;
#X connect 4 0 18 0;
#X connect 5 0 17 0;
#X connect 5 0 7 1;
#X connect 6 0 7 1;
#X connect 7 0 6 0;
#X connect 7 0 8 0;
#X connect 8 0 14 0;
#X connect 9 0 7 0;
#X connect 10 0 5 0;
#X connect 11 0 9 0;
#X connect 11 0 13 0;
#X connect 12 0 16 0;
#X connect 13 0 8 0;
#X connect 13 0 14 1;
#X connect 14 0 12 0;
#X connect 16 0 2 0;
#X connect 16 0 15 0;
#X connect 17 0 2 0;
#X connect 17 0 15 0;
#X connect 18 0 19 0;
#X connect 19 0 5 0;
#X connect 20 0 4 0;
